<svg width="65" height="64" viewBox="0 0 65 64" fill="none" xmlns="http://www.w3.org/2000/svg">
<rect x="1.09961" y="0.501465" width="63" height="62.9985" rx="31.4992" stroke="white"/>
<path d="M40.3353 32.7286C40.5032 32.5411 40.5996 32.2786 40.5996 32.0036C40.5996 31.7286 40.5032 31.4703 40.3353 31.2786L34.0496 24.2788C33.7068 23.8955 33.1639 23.9122 32.8389 24.3122C32.5139 24.7122 32.5246 25.3455 32.8675 25.7246L37.6032 31.0036H25.4568C24.9818 31.0036 24.5996 31.4494 24.5996 32.0036C24.5996 32.5577 24.9818 33.0036 25.4568 33.0036H37.6032L32.8639 38.2784C32.521 38.6617 32.5103 39.2909 32.8353 39.6909C33.1603 40.0908 33.7032 40.1033 34.046 39.7242L40.3318 32.7244L40.3353 32.7286Z" fill="white"/>
</svg>
